# xmcd CD database file
#
# Track frame offsets:
#	150
#	20135
#	36227
#	53162
#	67420
#
# Disc length: 1163 seconds
#
# Revision: 0
# Processed by: cddbd v1.4PL0 Copyright (c) Steve Scherf et al.
# Submitted via: CDex 1.51
#
DISCID=49048905
DTITLE=Karma County - East Meets South
DYEAR=1997
DGENRE=New Age
TTITLE0=East Meets South (Hannibal Mix)
TTITLE1=She Never Loved You (Triple J Live Version)
TTITLE2=East Meets South (Triple J Live Version)
TTITLE3=Subjunctive Mood (Demo)
TTITLE4=East Meets South (Album Version)
EXTD=YEAR: 1997
EXTT0=
EXTT1=
EXTT2=
EXTT3=
EXTT4=
PLAYORDER=
